<?xml version="1.0" standalone="no"?>
<!DOCTYPE svg PUBLIC "-//W3C//DTD SVG 20010904//EN"
 "http://www.w3.org/TR/2001/REC-SVG-20010904/DTD/svg10.dtd">
<svg version="1.0" xmlns="http://www.w3.org/2000/svg"
 width="576.000000pt" height="576.000000pt" viewBox="0 0 576.000000 576.000000"
 preserveAspectRatio="xMidYMid meet">
<metadata>
Created by potrace 1.11, written by Peter Selinger 2001-2013
</metadata>
<g transform="translate(0.000000,576.000000) scale(0.100000,-0.100000)"
fill="#000000" stroke="none">
<path d="M340 5417 c-151 -51 -252 -146 -312 -295 l-23 -57 0 -1700 c0 -1641
1 -1702 19 -1755 67 -194 250 -327 452 -328 33 -1 64 -2 69 -3 6 -1 14 -1 18
0 5 1 45 1 90 1 139 0 191 1 197 5 3 2 12 0 19 -4 7 -5 30 -5 51 -1 22 4 41 5
44 3 7 -7 226 -9 226 -2 0 3 19 3 43 -1 23 -3 56 -3 74 1 17 3 37 3 43 -1 6
-4 29 -4 50 0 22 4 41 5 44 3 8 -8 226 -8 226 0 0 5 4 6 9 2 5 -3 31 -5 58 -5
61 1 70 1 176 0 48 -1 92 2 97 5 5 3 11 2 14 -3 2 -4 32 -5 65 -2 34 3 61 3
61 0 0 -3 37 -4 82 -2 114 4 148 3 157 -2 4 -3 -27 -110 -70 -238 l-77 -233
-31 0 c-17 0 -31 -3 -31 -7 0 -4 -6 -5 -12 -3 -18 7 -168 11 -168 5 0 -3 -39
-4 -87 -2 -114 3 -177 4 -189 1 -5 -1 -13 -1 -19 1 -19 3 -160 0 -212 -5 -89
-8 -171 -74 -201 -162 -14 -41 -8 -127 11 -173 21 -49 76 -100 131 -122 45
-17 110 -18 1464 -16 l1417 3 45 28 c163 103 153 342 -17 422 -46 22 -243 39
-243 22 0 -5 -5 -5 -10 -2 -6 4 -63 6 -128 5 -64 -1 -133 0 -152 0 -19 1 -42
2 -50 1 -8 -1 -28 -1 -45 0 -16 1 -37 1 -45 0 -25 -1 -103 0 -129 2 -21 2 -30
21 -101 237 -43 129 -76 236 -75 238 2 2 36 3 77 2 40 -1 87 -1 103 0 17 1 37
2 45 1 8 -1 31 -1 50 0 19 1 41 1 48 1 73 -4 234 -2 241 2 5 4 12 3 15 -2 2
-4 32 -5 65 -2 34 3 61 3 61 0 0 -6 160 -2 177 4 7 3 14 2 17 -2 3 -4 32 -5
65 -2 34 3 61 3 61 0 0 -3 39 -3 86 0 47 3 90 3 95 0 4 -3 36 -3 69 0 33 3 65
3 71 -1 6 -3 28 -3 49 1 22 4 41 5 44 3 7 -7 226 -9 226 -2 0 3 20 3 43 -1 24
-3 52 -3 63 0 10 4 30 4 44 0 14 -4 34 -4 45 0 11 4 34 4 52 -1 18 -4 36 -3
39 2 3 5 9 7 13 4 15 -8 123 25 180 56 100 53 177 142 223 257 l23 57 0 1700
c0 1641 -1 1702 -19 1755 -37 108 -118 207 -217 265 -117 68 86 64 -2644 64
l-2470 0 -65 -22z m470 -617 c33 3 60 3 60 0 0 -3 51 -3 113 0 62 3 134 3 160
0 26 -3 47 -3 47 0 0 4 19 4 43 1 23 -4 59 -4 80 0 21 3 40 3 42 -1 2 -4 25
-4 50 0 25 4 45 4 45 1 0 -7 216 -5 236 3 7 3 15 2 18 -2 3 -4 32 -5 65 -2 34
3 61 3 61 0 0 -3 38 -3 84 0 46 3 96 3 112 0 16 -4 43 -3 60 1 18 3 37 3 44
-1 6 -4 29 -4 51 0 22 4 41 4 44 0 2 -4 25 -4 50 0 25 4 45 4 45 1 0 -5 36 -5
125 0 11 0 67 0 125 0 58 -1 133 0 168 1 34 2 62 1 62 -2 0 -4 23 -4 130 0 14
1 42 1 63 1 20 0 43 0 50 0 6 0 71 0 142 0 72 -1 158 0 193 1 34 2 62 1 62 -2
0 -4 23 -4 130 0 14 1 42 1 63 1 20 0 45 0 55 0 104 0 219 1 230 0 78 -2 102
-2 110 3 4 2 14 1 21 -3 7 -5 30 -5 52 -1 22 4 41 4 44 0 2 -4 25 -4 50 0 25
4 45 4 45 1 0 -3 24 -5 52 -4 29 1 62 3 73 3 11 1 59 0 107 0 48 -1 91 1 97 4
5 4 12 3 15 -2 2 -4 32 -5 65 -2 34 3 61 3 61 0 0 -3 51 -3 113 0 62 3 134 3
160 0 26 -3 47 -3 47 0 0 4 19 4 43 1 41 -6 42 -7 47 -51 3 -25 3 -71 0 -103
-3 -32 -2 -60 2 -63 4 -3 5 -10 2 -17 -6 -17 -10 -177 -4 -177 3 0 3 -27 0
-61 -3 -33 -2 -62 2 -65 4 -3 5 -10 2 -17 -6 -17 -10 -177 -4 -177 3 0 3 -27
0 -61 -3 -33 -2 -62 2 -65 4 -3 5 -10 2 -17 -6 -17 -10 -177 -4 -177 3 0 3
-27 0 -61 -3 -33 -2 -62 2 -65 4 -3 5 -10 2 -17 -6 -17 -10 -177 -4 -177 3 0
3 -27 0 -61 -3 -33 -2 -62 2 -65 4 -3 5 -10 2 -17 -6 -17 -10 -177 -4 -177 3
0 3 -27 0 -61 -3 -33 -2 -62 2 -65 4 -3 5 -10 2 -17 -6 -17 -10 -177 -4 -177
3 0 3 -27 0 -61 -3 -33 -2 -62 2 -65 4 -3 5 -10 2 -17 -6 -17 -10 -177 -4
-177 3 0 3 -27 0 -61 -3 -33 -2 -62 2 -65 4 -3 5 -10 2 -17 -6 -17 -10 -177
-4 -177 3 0 3 -27 0 -61 -3 -33 -2 -63 2 -65 5 -3 6 -9 4 -13 -3 -4 -6 -26 -7
-48 -3 -37 -6 -42 -31 -45 -15 -3 -32 -1 -38 2 -6 4 -29 4 -51 0 -22 -4 -41
-4 -43 -1 -3 4 -33 4 -68 1 -35 -3 -84 -3 -110 0 -27 3 -48 3 -48 0 0 -4 -19
-4 -42 0 -24 3 -57 3 -75 -1 -17 -3 -37 -3 -43 1 -6 4 -29 4 -51 0 -22 -4 -41
-4 -43 -1 -3 4 -33 4 -68 1 -35 -3 -84 -3 -110 0 -27 3 -48 3 -48 0 0 -4 -19
-4 -42 -1 -24 4 -60 4 -81 0 -21 -3 -40 -3 -42 1 -2 4 -25 4 -50 0 -25 -4 -45
-4 -45 -1 0 7 -216 5 -236 -3 -7 -3 -15 -2 -18 2 -3 4 -32 5 -65 2 -34 -3 -61
-3 -61 0 0 6 -160 2 -177 -4 -7 -3 -14 -2 -17 2 -3 4 -32 5 -65 2 -34 -3 -61
-3 -61 0 0 6 -160 2 -177 -4 -7 -3 -14 -2 -17 2 -3 4 -32 5 -65 2 -34 -3 -61
-3 -61 0 0 6 -160 2 -177 -4 -7 -3 -14 -2 -17 2 -3 4 -32 5 -65 2 -34 -3 -61
-3 -61 0 0 5 -105 4 -268 -3 -34 -1 -62 0 -62 3 0 3 -26 4 -57 2 -82 -4 -144
-3 -153 3 -5 3 -11 1 -14 -4 -3 -4 -23 -5 -43 -2 -21 4 -55 4 -76 0 -21 -3
-40 -3 -42 1 -2 4 -25 4 -50 0 -25 -4 -45 -4 -45 -1 0 3 -26 5 -57 3 -82 -4
-144 -3 -153 3 -5 3 -11 1 -14 -3 -3 -5 -22 -6 -43 -3 -21 4 -55 4 -76 0 -20
-3 -39 -3 -42 1 -2 4 -25 4 -50 0 -25 -4 -45 -4 -45 -1 0 5 -40 5 -125 0 -11
0 -36 0 -55 0 -19 1 -42 1 -50 0 -8 0 -40 0 -70 0 -30 0 -62 0 -70 0 -8 0 -24
0 -35 1 -11 1 -41 1 -67 1 -27 0 -55 0 -63 0 -8 0 -49 0 -91 -1 -42 -1 -81 3
-86 8 -10 10 -13 177 -3 192 3 5 1 11 -4 15 -6 3 -8 11 -5 18 6 17 10 177 4
177 -3 0 -3 27 0 61 3 33 2 63 -2 65 -5 3 -6 9 -3 14 3 5 6 49 5 97 -1 106 -1
115 0 176 0 27 -2 53 -5 58 -4 5 -2 9 2 9 5 0 6 21 3 48 -3 26 -3 75 0 110 3
35 3 65 -1 68 -3 2 -3 21 1 43 4 22 4 45 0 51 -4 6 -4 26 -1 43 4 18 4 51 1
75 -4 23 -4 42 0 42 3 0 3 21 0 48 -3 26 -3 75 0 110 3 35 3 65 -1 68 -3 2 -3
21 1 43 4 22 4 44 1 50 -4 6 -4 38 -1 71 3 33 3 65 0 69 -3 5 -3 48 0 95 3 47
3 86 0 86 -3 0 -3 27 0 61 3 33 2 62 -2 65 -4 3 -5 10 -2 17 6 17 10 177 4
177 -3 0 -3 27 0 61 3 33 2 63 -2 65 -5 3 -6 10 -2 15 3 6 5 49 4 97 0 48 -1
96 0 107 0 11 2 44 3 73 1 28 0 52 -3 52 -3 0 -4 17 -2 38 4 37 5 38 45 41 23
1 43 4 46 7 3 2 8 1 13 -4 4 -4 35 -5 68 -2z"/>
</g>
</svg>
